# xmcd
#
# Track frame offsets:
#	150
#	14516
#	31225
#	47778
#	60870
#	76871
#	91028
#	109131
#	126999
#	142934
#	158177
#	174721
#	191415
#	206291
#	225632
#
# Disc length: 3191 seconds
#
# Revision: 1
# Processed by: cddbd v1.5.1PL0 Copyright (c) Steve Scherf et al.
# Submitted via: audiograbber 1.83.01
#
DISCID=b60c750f
DTITLE=Various Artist - Chartbuster CBCDG-60190 Hot Country Hits Collection Vol 190
DYEAR=1900
DGENRE=Country
TTITLE0=McGraw, Tim - Something Like That
TTITLE1=McEntire, Reba - What Do You Say
TTITLE2=Gill, Vince - Loving You Makes Me A Better Man
TTITLE3=Elliott, Alecia - I'm Diggin' It
TTITLE4=Holy, Steve - Don't Make Me Beg
TTITLE5=Austin, Chad - All My Dreams
TTITLE6=Dixie Chicks - Hello Mr. Heartache
TTITLE7=McDaniel, Lesley - I Was Over You Last Night
TTITLE8=Keith, Toby - When Love Fades
TTITLE9=Church, Claudia - It's All Your Fault
TTITLE10=Tritt, Travis - Move It On Over
TTITLE11=Jones, George - You Never Know Just How Good You've Got It
TTITLE12=Davis, Linda - I Took The Torch Out Of His Old Flame
TTITLE13=Alabama - Small Stuff
TTITLE14=Petrone, Shana - Something Real
EXTD=
EXTT0=
EXTT1=
EXTT2=
EXTT3=
EXTT4=
EXTT5=
EXTT6=
EXTT7=
EXTT8=
EXTT9=
EXTT10=
EXTT11=
EXTT12=
EXTT13=
EXTT14=
PLAYORDER=
